<svg width="316" height="157" viewBox="0 0 316 157" fill="none" xmlns="http://www.w3.org/2000/svg">
<rect x="0.195787" y="0.195787" width="315.608" height="156.238" rx="2.9368" fill="white" stroke="#EBEAEB" stroke-width="0.391574"/>
<path fill-rule="evenodd" clip-rule="evenodd" d="M125.306 91.2433L127.534 86.0445C129.974 87.8479 133.157 88.8027 136.34 88.8027C138.675 88.8027 140.16 87.901 140.16 86.5216C140.107 82.7022 126.101 85.6731 125.995 76.0705C125.942 71.1899 130.292 67.4231 136.446 67.4231C140.107 67.4231 143.768 68.3255 146.367 70.3945L144.285 75.7044C141.893 74.1695 138.94 73.0996 136.128 73.0996C134.218 73.0996 132.945 74.0013 132.945 75.1688C132.998 78.9356 147.11 76.8664 147.269 86.0445C147.269 91.0314 143.025 94.5322 136.977 94.5322C132.521 94.5322 128.436 93.4717 125.306 91.2433Z" fill="black"/>
<path fill-rule="evenodd" clip-rule="evenodd" d="M211.35 84.162C210.238 86.1249 208.133 87.45 205.716 87.45C202.141 87.45 199.244 84.5527 199.244 80.9781C199.244 77.4036 202.141 74.5057 205.716 74.5057C208.133 74.5057 210.238 75.8309 211.35 77.7937L217.545 74.3617C215.225 70.2224 210.798 67.4236 205.716 67.4236C198.23 67.4236 192.161 73.4917 192.161 80.9781C192.161 88.4641 198.23 94.5327 205.716 94.5327C210.798 94.5327 215.225 91.7333 217.545 87.5941L211.35 84.162Z" fill="black"/>
<mask id="mask0_1705_16238" style="mask-type:alpha" maskUnits="userSpaceOnUse" x="67" y="55" width="181" height="46">
<path fill-rule="evenodd" clip-rule="evenodd" d="M67.8972 100.911H247.383V55.4631H67.8972V100.911Z" fill="white"/>
</mask>
<g mask="url(#mask0_1705_16238)">
<path fill-rule="evenodd" clip-rule="evenodd" d="M150.392 94.0021H158.138V56.1406H150.392V94.0021Z" fill="black"/>
<path fill-rule="evenodd" clip-rule="evenodd" d="M220.559 56.1406V94.0021H228.305V82.6586L237.483 94.0021H247.383L235.711 80.5264L246.534 67.9526H237.059L228.305 78.4058V56.1406H220.559Z" fill="black"/>
<path fill-rule="evenodd" clip-rule="evenodd" d="M181.103 67.9539V71.0309C179.83 68.9088 176.699 67.4236 173.41 67.4236C166.62 67.4236 161.262 73.4183 161.262 80.9514C161.262 88.485 166.62 94.5327 173.41 94.5327C176.699 94.5327 179.83 93.0472 181.103 90.9248V94.0018H188.848V67.9539H181.103ZM181.103 84.214C179.989 86.0711 177.654 87.4499 175.055 87.4499C171.48 87.4499 168.583 84.5526 168.583 80.978C168.583 77.4037 171.48 74.5058 175.055 74.5058C177.654 74.5058 179.989 75.9382 181.103 77.8479V84.214Z" fill="black"/>
<path fill-rule="evenodd" clip-rule="evenodd" d="M77.4653 84.1673C77.4653 86.8095 75.3235 88.9513 72.6813 88.9513C70.0391 88.9513 67.8973 86.8095 67.8973 84.1673C67.8973 81.5251 70.0391 79.3833 72.6813 79.3833H77.4653V84.1673Z" fill="#E01E5A"/>
<path fill-rule="evenodd" clip-rule="evenodd" d="M79.8573 84.1673C79.8573 81.5251 81.9991 79.3833 84.6413 79.3833C87.2835 79.3833 89.4254 81.5251 89.4254 84.1673V96.1274C89.4254 98.7696 87.2835 100.911 84.6413 100.911C81.9991 100.911 79.8573 98.7696 79.8573 96.1274V84.1673Z" fill="#E01E5A"/>
<path fill-rule="evenodd" clip-rule="evenodd" d="M84.6413 65.0312C81.9991 65.0312 79.8573 62.8894 79.8573 60.2472C79.8573 57.605 81.9991 55.4631 84.6413 55.4631C87.2835 55.4631 89.4254 57.605 89.4254 60.2472V65.0312H84.6413Z" fill="#36C5F0"/>
<path fill-rule="evenodd" clip-rule="evenodd" d="M84.6414 67.4231C87.2835 67.4231 89.4254 69.5649 89.4254 72.2071C89.4254 74.8493 87.2835 76.9911 84.6414 76.9911H72.6813C70.0391 76.9911 67.8973 74.8493 67.8973 72.2071C67.8973 69.5649 70.0391 67.4231 72.6813 67.4231H84.6414Z" fill="#36C5F0"/>
<path fill-rule="evenodd" clip-rule="evenodd" d="M103.777 72.2071C103.777 69.5649 105.919 67.4231 108.561 67.4231C111.204 67.4231 113.345 69.5649 113.345 72.2071C113.345 74.8493 111.204 76.9911 108.561 76.9911H103.777V72.2071Z" fill="#2EB67D"/>
<path fill-rule="evenodd" clip-rule="evenodd" d="M101.385 72.2072C101.385 74.8494 99.2436 76.9912 96.6014 76.9912C93.9592 76.9912 91.8174 74.8494 91.8174 72.2072V60.2472C91.8174 57.605 93.9592 55.4631 96.6014 55.4631C99.2436 55.4631 101.385 57.605 101.385 60.2472V72.2072Z" fill="#2EB67D"/>
<path fill-rule="evenodd" clip-rule="evenodd" d="M96.6014 91.3433C99.2436 91.3433 101.385 93.4851 101.385 96.1273C101.385 98.7695 99.2436 100.911 96.6014 100.911C93.9592 100.911 91.8174 98.7695 91.8174 96.1273V91.3433H96.6014Z" fill="#ECB22E"/>
<path fill-rule="evenodd" clip-rule="evenodd" d="M96.6014 88.9513C93.9592 88.9513 91.8174 86.8095 91.8174 84.1673C91.8174 81.5251 93.9592 79.3833 96.6014 79.3833H108.561C111.204 79.3833 113.345 81.5251 113.345 84.1673C113.345 86.8095 111.204 88.9513 108.561 88.9513H96.6014Z" fill="#ECB22E"/>
</g>
</svg>
